<svg width="1073" height="1074" viewBox="0 0 1073 1074" fill="none" xmlns="http://www.w3.org/2000/svg">
<path d="M0 537.449C0 833.75 240.199 1073.95 536.5 1073.95C832.8 1073.95 1073 833.75 1073 537.449C1073 241.148 832.8 0.949219 536.5 0.949219C240.199 0.949219 0 241.148 0 537.449Z" fill="#0088CC"/>
<path d="M271.6 527.668C415.616 464.923 511.648 423.557 559.699 403.572C696.892 346.508 725.399 336.596 743.98 336.265C748.067 336.196 757.204 337.209 763.123 342.012C768.121 346.067 769.496 351.546 770.154 355.39C770.812 359.235 771.631 367.994 770.98 374.838C763.546 452.954 731.376 642.519 715.011 730.01C708.086 767.03 694.45 779.443 681.249 780.658C652.561 783.298 630.776 761.698 602.99 743.484C559.51 714.983 534.947 697.24 492.743 669.428C443.968 637.286 475.587 619.621 503.383 590.75C510.658 583.194 637.059 468.223 639.506 457.793C639.812 456.488 640.096 451.626 637.207 449.059C634.318 446.491 630.055 447.369 626.979 448.067C622.618 449.057 553.158 494.967 418.6 585.798C398.885 599.336 381.027 605.932 365.026 605.587C347.388 605.206 313.458 595.614 288.234 587.414C257.296 577.358 232.708 572.041 234.849 554.961C235.964 546.066 248.214 536.968 271.6 527.668Z" fill="white"/>
</svg>
