<svg width="1073" height="1074" viewBox="0 0 1073 1074" fill="none" xmlns="http://www.w3.org/2000/svg">
<path d="M0 537.053C0 833.353 240.199 1073.55 536.5 1073.55C832.8 1073.55 1073 833.353 1073 537.053C1073 240.752 832.8 0.552734 536.5 0.552734C240.199 0.552734 0 240.752 0 537.053Z" fill="#1DA1F2"/>
<path d="M804.75 369.396C784.631 379.456 764.512 382.809 741.04 386.162C764.512 372.75 781.278 352.631 787.984 325.806C767.865 339.218 744.394 345.925 717.569 352.631C697.45 332.512 667.272 319.1 637.094 319.1C566.678 319.1 513.028 386.162 529.794 453.225C439.259 449.871 358.784 406.281 301.781 339.218C271.603 389.515 288.369 453.225 335.312 486.756C318.547 486.756 301.781 480.05 285.016 473.343C285.016 523.64 321.9 570.584 372.197 583.996C355.431 587.35 338.666 590.703 321.9 587.35C335.312 630.94 375.55 664.471 425.847 664.471C385.609 694.649 325.253 711.415 268.25 704.709C318.547 734.887 375.55 755.006 435.906 755.006C640.447 755.006 754.453 583.996 747.747 426.4C771.219 412.987 791.337 392.868 804.75 369.396Z" fill="white"/>
</svg>
